# xmcd
#
# Track frame offsets:
#	150
#	15300
#	29505
#	47312
#	64047
#	70262
#	88290
#	104090
#	124185
#	139727
#	155959
#
# Disc length: 2256 seconds
#
# Revision: 1
# Processed by: cddbd v1.5PL3 Copyright (c) Steve Scherf et al.
# Submitted via: EasyCDDAExtractor 6.2.0.3
#
DISCID=9a08ce0b
DTITLE=MC Solaar
DYEAR=1998
DGENRE=Hip-Hop
TTITLE0=Onzième Commandement
TTITLE1=Galakitika
TTITLE2=5ème Saison
TTITLE3=Perfect
TTITLE4=Songes
TTITLE5=Vie N'Est Qu'un Moment
TTITLE6=Vigipirap 
TTITLE7=Message de l'Ange
TTITLE8=Nouvelle Genèse
TTITLE9=Je Me Souviens (Flash-Back)
TTITLE10=Argent Ne Fait Pas le Bonheur
EXTD=
EXTT0=
EXTT1=
EXTT2=
EXTT3=
EXTT4=
EXTT5=
EXTT6=
EXTT7=
EXTT8=
EXTT9=
EXTT10=
PLAYORDER=
